<svg height="512pt" viewBox="0 0 512 512" width="512pt" xmlns="http://www.w3.org/2000/svg"><path d="M550 307q7 0 54-25t50-30q1-2 1-8 0-18-9-42-9-22-40-37t-57-15q-32 0-106 35-55 25-95 66t-82 103q-41 60-40 108v5q2 50 41 88 14 12 29 12 4 0 10-1t11-1q11 0 15-3t8-16q5-11 19-49t14-41q0-12-19-33t-20-26q0-3 3-8 19-41 57-76 31-30 84-57 7-4 13-4 8 0 30 27t29 28z m-114-296q71 0 136 28t112 74 75 112 28 136-28 136-75 112-112 75-136 28-135-28-112-75-75-112-28-136q0-113 67-205l-44-130 135 43q88-58 192-58z m0 771q86 0 164-34t134-89 90-135 33-163-33-163-90-134-134-90-164-34q-108 0-203 53l-233-75 76 226q-60 99-60 217 0 86 33 163t90 135 134 89 163 34z" fill="#FFFFFF"/></svg>